<svg xmlns="http://www.w3.org/2000/svg" width="2019" height="519" viewBox="0 0 2019 519">
<g>
<path d="M 1361.50 399.53 C1357.58,400.61 1350.30,401.33 1340.50,401.58 C1321.57,402.08 1310.96,400.07 1297.12,393.37 C1289.41,389.64 1286.29,387.38 1279.56,380.66 C1271.12,372.24 1265.94,363.91 1262.68,353.50 C1262.44,352.75 1262.22,352.07 1262.01,351.44 C1261.11,348.69 1260.58,347.07 1261.16,346.13 C1261.97,344.78 1265.04,344.81 1272.46,344.86 C1273.64,344.86 1274.94,344.87 1276.35,344.88 L 1292.20 344.92 L 1294.98 350.71 C1303.43,368.36 1325.94,377.64 1347.78,372.49 C1351.24,371.67 1355.91,370.06 1358.17,368.91 C1364.04,365.92 1371.20,358.88 1374.44,352.92 C1379.33,343.94 1379.98,339.50 1379.99,314.55 L 1380.00 291.61 L 1377.35 296.93 C1374.05,303.54 1364.19,314.24 1357.33,318.64 C1354.48,320.47 1348.63,323.19 1344.33,324.69 C1337.28,327.15 1335.16,327.42 1323.00,327.40 C1311.08,327.38 1308.56,327.07 1301.50,324.72 C1290.20,320.95 1281.92,315.69 1273.65,307.01 C1265.39,298.35 1260.36,289.46 1256.35,276.46 C1253.74,268.00 1253.58,266.40 1253.54,248.00 C1253.51,230.56 1253.74,227.66 1255.80,220.57 C1263.25,194.83 1280.63,176.74 1304.00,170.41 C1313.06,167.96 1333.12,167.95 1342.00,170.38 C1356.71,174.42 1370.17,185.13 1377.08,198.30 L 1380.65 205.09 L 1385.66 187.80 L 1390.66 170.50 L 1413.07 169.93 L 1412.77 255.72 C1412.46,341.21 1412.45,341.53 1410.21,349.50 C1402.92,375.37 1386.02,392.73 1361.50,399.53 ZM 1099.79 326.41 C1095.55,327.28 1088.58,327.95 1084.29,327.90 C1051.93,327.48 1026.68,307.01 1017.81,274.00 C1014.71,262.44 1014.47,234.63 1017.37,223.00 C1022.80,201.26 1035.52,184.33 1053.09,175.46 C1071.63,166.10 1096.95,165.76 1114.97,174.61 C1124.04,179.07 1133.93,188.60 1138.72,197.51 L 1141.95 203.50 L 1141.97 160.25 L 1142.00 117.00 L 1175.01 117.00 L 1174.50 325.50 L 1142.50 325.50 L 1142.00 308.50 C1141.56,293.54 1141.35,291.90 1140.27,294.85 C1138.10,300.74 1130.23,310.66 1124.01,315.33 C1116.03,321.33 1109.15,324.48 1099.79,326.41 ZM 1689.47 326.49 C1681.89,328.09 1669.10,328.29 1662.08,326.91 C1639.44,322.47 1622.72,309.40 1612.96,288.50 C1606.53,274.74 1605.50,269.06 1605.51,247.50 C1605.52,230.70 1605.78,227.57 1607.81,220.50 C1615.32,194.29 1632.02,176.96 1656.09,170.39 C1665.11,167.92 1686.22,167.94 1694.50,170.43 C1709.44,174.90 1722.79,185.73 1729.05,198.45 C1730.90,202.20 1732.55,204.85 1732.72,204.34 C1732.89,203.82 1735.18,196.00 1737.80,186.95 L 1742.57 170.50 L 1753.79 170.22 L 1765.01 169.93 L 1764.76 247.72 L 1764.50 325.50 L 1732.50 325.50 L 1731.50 292.50 L 1728.10 298.77 C1720.97,311.93 1705.36,323.12 1689.47,326.49 ZM 508.53 324.75 C506.64,328.74 504.96,331.99 504.80,331.97 C504.63,331.95 480.42,317.97 451.00,300.91 C421.58,283.85 387.15,263.99 374.50,256.77 C361.85,249.56 351.15,243.36 350.73,243.01 C349.53,242.00 359.10,229.11 365.71,222.84 C376.93,212.18 391.55,204.33 407.64,200.31 C418.20,197.67 439.04,197.94 449.93,200.85 C467.37,205.52 480.62,213.45 492.89,226.59 C517.74,253.19 523.95,292.20 508.53,324.75 ZM 1586.78 311.87 L 1586.50 325.50 L 1572.00 325.63 C1555.73,325.77 1555.06,325.70 1546.00,322.87 C1531.07,318.22 1522.94,309.83 1518.42,294.46 C1516.90,289.28 1516.62,282.60 1516.26,243.28 L 1515.86 198.07 L 1505.18 197.78 L 1494.50 197.50 L 1494.22 183.78 L 1493.94 170.07 L 1505.17 169.78 L 1516.39 169.50 L 1527.39 131.00 L 1549.00 131.00 L 1549.00 170.00 L 1587.06 170.00 L 1586.50 197.50 L 1548.90 198.04 L 1549.20 241.77 C1549.49,283.77 1549.58,285.64 1551.55,289.00 C1552.68,290.92 1555.60,293.61 1558.05,294.96 C1561.94,297.11 1564.05,297.48 1574.78,297.83 L 1587.05 298.24 ZM 1320.00 297.64 C1331.25,300.70 1347.20,298.59 1357.23,292.71 C1366.84,287.08 1375.40,275.26 1378.51,263.31 C1380.43,255.92 1380.42,240.05 1378.49,232.63 C1374.71,218.13 1365.54,206.50 1353.35,200.76 C1347.22,197.88 1345.35,197.50 1335.63,197.16 C1322.44,196.69 1314.65,198.49 1306.18,203.96 C1291.96,213.15 1285.03,230.07 1286.30,252.51 C1287.63,276.16 1299.51,292.06 1320.00,297.64 ZM 1081.91 297.56 C1088.10,299.26 1101.33,299.29 1107.65,297.61 C1123.54,293.38 1137.01,279.01 1141.02,262.00 C1142.71,254.88 1142.73,240.99 1141.07,234.00 C1137.53,219.08 1128.67,207.42 1116.21,201.26 C1109.02,197.71 1107.99,197.48 1097.42,197.15 C1080.75,196.62 1071.21,199.94 1061.46,209.70 C1043.77,227.39 1043.56,266.46 1061.05,285.44 C1065.38,290.14 1074.76,295.58 1081.91,297.56 ZM 1672.70 297.90 C1684.14,300.60 1699.54,298.39 1709.33,292.65 C1714.92,289.38 1723.38,280.16 1726.56,273.88 C1734.07,259.06 1733.84,236.45 1726.02,221.08 C1717.83,204.99 1704.24,197.00 1685.06,197.00 C1672.89,197.00 1664.66,199.33 1656.72,205.01 C1645.16,213.29 1639.21,225.66 1638.25,243.37 C1637.23,262.37 1642.14,277.35 1652.48,286.81 C1658.18,292.02 1666.06,296.34 1672.70,297.90 ZM 1822.01 117.00 L 1821.50 325.50 L 1805.94 325.77 C1797.38,325.93 1790.07,325.74 1789.69,325.36 C1789.31,324.98 1789.00,277.94 1789.00,220.83 L 1789.00 117.00 ZM 1232.01 170.00 L 1231.50 325.50 L 1215.94 325.77 C1207.38,325.93 1200.07,325.74 1199.69,325.36 C1199.31,324.98 1199.00,289.87 1199.00,247.33 L 1199.00 170.00 ZM 1470.01 170.00 L 1469.50 325.50 L 1453.94 325.77 C1445.38,325.93 1438.07,325.74 1437.69,325.36 C1437.31,324.98 1437.00,289.87 1437.00,247.33 L 1437.00 170.00 ZM 1223.28 152.62 C1216.49,155.53 1206.31,153.33 1201.32,147.88 C1193.91,139.80 1196.16,124.92 1205.62,119.37 C1209.50,117.10 1210.92,116.83 1217.00,117.17 C1224.99,117.62 1228.23,119.47 1231.73,125.59 C1234.20,129.91 1234.76,137.86 1232.94,142.68 C1231.49,146.52 1227.17,150.96 1223.28,152.62 ZM 1461.91 152.04 C1453.10,156.54 1441.00,152.63 1436.41,143.80 C1434.33,139.81 1434.62,130.66 1436.98,126.04 C1439.95,120.21 1444.23,117.64 1451.78,117.16 C1462.91,116.45 1470.61,122.34 1471.74,132.41 C1472.79,141.74 1469.60,148.12 1461.91,152.04 Z" fill="rgb(1,26,82)"/>
<path d="M 766.03 281.75 L 766.00 326.00 L 734.00 326.00 L 734.00 170.00 L 765.95 170.00 L 766.22 185.25 L 766.50 200.50 L 769.50 194.52 C775.36,182.84 788.03,173.06 802.11,169.34 C810.77,167.05 827.51,167.09 835.45,169.42 C850.50,173.84 863.60,184.38 869.43,196.77 C871.05,200.20 872.62,203.00 872.93,203.00 C873.25,203.00 874.83,200.41 876.45,197.25 C880.79,188.79 891.78,178.30 901.00,173.84 C911.29,168.85 917.60,167.54 930.50,167.67 C939.37,167.77 943.06,168.29 949.58,170.39 C963.39,174.82 975.64,185.15 981.75,197.50 C989.11,212.41 990.19,223.51 989.80,281.00 L 989.50 325.50 L 957.50 325.50 L 956.98 275.00 C956.42,219.55 956.69,222.02 949.95,211.08 C946.06,204.76 937.62,198.83 929.87,196.97 C926.74,196.22 921.24,195.94 915.81,196.25 C908.12,196.68 905.85,197.27 899.48,200.41 C891.63,204.29 887.09,208.84 883.05,216.86 C878.47,225.93 878.04,231.46 878.02,280.25 L 878.00 326.00 L 846.21 326.00 L 845.71 277.25 C845.39,246.07 844.81,226.95 844.09,224.21 C841.02,212.46 834.92,204.56 825.23,199.79 C818.83,196.64 818.03,196.50 807.02,196.51 C796.47,196.52 794.98,196.76 789.28,199.38 C781.95,202.76 773.89,210.73 770.84,217.64 C766.66,227.08 766.07,234.94 766.03,281.75 ZM 365.89 222.66 C365.83,222.72 365.77,222.78 365.71,222.84 C359.10,229.11 349.53,242.00 350.73,243.01 C351.15,243.36 361.85,249.56 374.50,256.77 C387.15,263.99 421.58,283.85 451.00,300.91 C463.41,308.11 474.88,314.75 484.03,320.03 C471.31,312.69 453.84,302.58 434.65,291.47 C396.23,269.21 364.50,251.02 364.15,251.05 C363.79,251.07 361.92,253.60 360.00,256.65 C355.02,264.56 340.84,277.66 331.54,282.94 C315.40,292.11 300.26,295.68 281.70,294.70 C257.87,293.43 237.88,284.22 221.65,267.01 C209.46,254.09 202.27,240.14 198.94,222.92 C194.99,202.57 197.66,183.31 206.94,165.13 L 209.10 160.88 L 213.30 163.27 C217.97,165.91 272.09,197.24 318.90,224.37 C335.62,234.07 349.57,242.00 349.90,242.00 C350.23,242.00 351.85,239.86 353.49,237.26 C356.76,232.09 360.98,227.17 365.89,222.66 ZM 670.00 324.52 C661.21,326.85 632.04,327.49 623.50,325.53 C603.39,320.93 589.79,310.99 582.36,295.47 C579.09,288.66 575.42,273.74 576.56,271.91 C576.87,271.41 583.28,271.00 590.82,271.00 L 604.53 271.00 L 605.75 276.14 C609.34,291.26 622.04,300.24 641.82,301.65 C657.46,302.76 670.99,299.07 677.44,291.94 C686.14,282.30 683.55,270.58 671.63,265.63 C665.06,262.90 651.50,260.36 633.50,258.49 C616.87,256.77 601.71,251.14 593.27,243.55 C572.15,224.56 579.88,189.94 608.37,176.00 C619.33,170.64 626.27,168.97 640.50,168.31 C649.70,167.88 654.48,168.15 661.00,169.48 C686.11,174.58 702.63,191.02 706.48,214.75 L 707.18 219.00 L 678.18 219.00 L 677.51 215.05 C676.06,206.50 668.49,198.84 658.14,195.45 C650.46,192.94 630.38,193.75 623.38,196.86 C616.95,199.71 612.47,204.33 611.12,209.50 C610.01,213.78 610.91,219.98 613.01,222.52 C617.22,227.59 628.63,231.01 651.03,233.94 C669.85,236.40 680.19,238.94 689.63,243.41 C708.16,252.19 715.19,266.86 710.46,286.91 C706.12,305.31 691.64,318.77 670.00,324.52 Z" fill="rgb(3,198,249)"/>
<path d="M 0.00 259.50 L 0.00 0.00 L 1009.50 0.00 L 2019.00 0.00 L 2019.00 259.50 L 2019.00 519.00 L 1009.50 519.00 L 0.00 519.00 L 0.00 259.50 ZM 1361.50 399.53 C1386.02,392.73 1402.92,375.37 1410.21,349.50 C1412.45,341.53 1412.46,341.21 1412.77,255.72 L 1413.07 169.93 L 1401.87 170.22 L 1390.66 170.50 L 1385.66 187.80 L 1380.65 205.09 L 1377.08 198.30 C1370.17,185.13 1356.71,174.42 1342.00,170.38 C1333.12,167.95 1313.06,167.96 1304.00,170.41 C1280.63,176.74 1263.25,194.83 1255.80,220.57 C1253.74,227.66 1253.51,230.56 1253.54,248.00 C1253.58,266.40 1253.74,268.00 1256.35,276.46 C1260.36,289.46 1265.39,298.35 1273.65,307.01 C1281.92,315.69 1290.20,320.95 1301.50,324.72 C1308.56,327.07 1311.08,327.38 1323.00,327.40 C1335.16,327.42 1337.28,327.15 1344.33,324.69 C1348.63,323.19 1354.48,320.47 1357.33,318.64 C1364.19,314.24 1374.05,303.54 1377.35,296.93 L 1380.00 291.61 L 1379.99 314.55 C1379.98,339.50 1379.33,343.94 1374.44,352.92 C1371.20,358.88 1364.04,365.92 1358.17,368.91 C1355.91,370.06 1351.24,371.67 1347.78,372.49 C1325.94,377.64 1303.43,368.36 1294.98,350.71 L 1292.20 344.92 L 1276.35 344.88 C1258.43,344.83 1259.70,344.02 1262.68,353.50 C1265.94,363.91 1271.12,372.24 1279.56,380.66 C1286.29,387.38 1289.41,389.64 1297.12,393.37 C1310.96,400.07 1321.57,402.08 1340.50,401.58 C1350.30,401.33 1357.58,400.61 1361.50,399.53 ZM 508.53 324.75 C523.95,292.20 517.74,253.19 492.89,226.59 C480.62,213.45 467.37,205.52 449.93,200.85 C439.04,197.94 418.20,197.67 407.64,200.31 C385.29,205.89 364.24,220.26 353.49,237.26 C351.85,239.86 350.23,242.00 349.90,242.00 C349.57,242.00 335.62,234.07 318.90,224.37 C272.09,197.24 217.97,165.91 213.30,163.27 L 209.10 160.88 L 206.94 165.13 C197.66,183.31 194.99,202.57 198.94,222.92 C202.27,240.14 209.46,254.09 221.65,267.01 C237.88,284.22 257.87,293.43 281.70,294.70 C300.26,295.68 315.40,292.11 331.54,282.94 C340.84,277.66 355.02,264.56 360.00,256.65 C361.92,253.60 363.79,251.07 364.15,251.05 C364.50,251.02 396.23,269.21 434.65,291.47 C473.07,313.72 504.63,331.95 504.80,331.97 C504.96,331.99 506.64,328.74 508.53,324.75 ZM 1099.79 326.41 C1109.15,324.48 1116.03,321.33 1124.01,315.33 C1130.23,310.66 1138.10,300.74 1140.27,294.85 C1141.35,291.90 1141.56,293.54 1142.00,308.50 L 1142.50 325.50 L 1158.50 325.50 L 1174.50 325.50 L 1174.75 221.25 L 1175.01 117.00 L 1158.50 117.00 L 1142.00 117.00 L 1141.97 160.25 L 1141.95 203.50 L 1138.72 197.51 C1133.93,188.60 1124.04,179.07 1114.97,174.61 C1096.95,165.76 1071.63,166.10 1053.09,175.46 C1035.52,184.33 1022.80,201.26 1017.37,223.00 C1014.47,234.63 1014.71,262.44 1017.81,274.00 C1026.68,307.01 1051.93,327.48 1084.29,327.90 C1088.58,327.95 1095.55,327.28 1099.79,326.41 ZM 1689.47 326.49 C1705.36,323.12 1720.97,311.93 1728.10,298.77 L 1731.50 292.50 L 1732.00 309.00 L 1732.50 325.50 L 1748.50 325.50 L 1764.50 325.50 L 1764.76 247.72 L 1765.01 169.93 L 1753.79 170.22 L 1742.57 170.50 L 1737.80 186.95 C1735.18,196.00 1732.89,203.82 1732.72,204.34 C1732.55,204.85 1730.90,202.20 1729.05,198.45 C1722.79,185.73 1709.44,174.90 1694.50,170.43 C1686.22,167.94 1665.11,167.92 1656.09,170.39 C1632.02,176.96 1615.32,194.29 1607.81,220.50 C1605.78,227.57 1605.52,230.70 1605.51,247.50 C1605.50,269.06 1606.53,274.74 1612.96,288.50 C1622.72,309.40 1639.44,322.47 1662.08,326.91 C1669.10,328.29 1681.89,328.09 1689.47,326.49 ZM 670.00 324.52 C691.64,318.77 706.12,305.31 710.46,286.91 C715.19,266.86 708.16,252.19 689.63,243.41 C680.19,238.94 669.85,236.40 651.03,233.94 C628.63,231.01 617.22,227.59 613.01,222.52 C610.91,219.98 610.01,213.78 611.12,209.50 C612.47,204.33 616.95,199.71 623.38,196.86 C630.38,193.75 650.46,192.94 658.14,195.45 C668.49,198.84 676.06,206.50 677.51,215.05 L 678.18 219.00 L 692.68 219.00 L 707.18 219.00 L 706.48 214.75 C702.63,191.02 686.11,174.58 661.00,169.48 C654.48,168.15 649.70,167.88 640.50,168.31 C626.27,168.97 619.33,170.64 608.37,176.00 C579.88,189.94 572.15,224.56 593.27,243.55 C601.71,251.14 616.87,256.77 633.50,258.49 C651.50,260.36 665.06,262.90 671.63,265.63 C683.55,270.58 686.14,282.30 677.44,291.94 C670.99,299.07 657.46,302.76 641.82,301.65 C622.04,300.24 609.34,291.26 605.75,276.14 L 604.53 271.00 L 590.82 271.00 C583.28,271.00 576.87,271.41 576.56,271.91 C575.42,273.74 579.09,288.66 582.36,295.47 C589.79,310.99 603.39,320.93 623.50,325.53 C632.04,327.49 661.21,326.85 670.00,324.52 ZM 766.03 281.75 C766.07,234.94 766.66,227.08 770.84,217.64 C773.89,210.73 781.95,202.76 789.28,199.38 C794.98,196.76 796.47,196.52 807.02,196.51 C818.03,196.50 818.83,196.64 825.23,199.79 C834.92,204.56 841.02,212.46 844.09,224.21 C844.81,226.95 845.39,246.07 845.71,277.25 L 846.21 326.00 L 862.11 326.00 L 878.00 326.00 L 878.02 280.25 C878.04,231.46 878.47,225.93 883.05,216.86 C887.09,208.84 891.63,204.29 899.48,200.41 C905.85,197.27 908.12,196.68 915.81,196.25 C921.24,195.94 926.74,196.22 929.87,196.97 C937.62,198.83 946.06,204.76 949.95,211.08 C956.69,222.02 956.42,219.55 956.98,275.00 L 957.50 325.50 L 973.50 325.50 L 989.50 325.50 L 989.80 281.00 C990.19,223.51 989.11,212.41 981.75,197.50 C975.64,185.15 963.39,174.82 949.58,170.39 C943.06,168.29 939.37,167.77 930.50,167.67 C917.60,167.54 911.29,168.85 901.00,173.84 C891.78,178.30 880.79,188.79 876.45,197.25 C874.83,200.41 873.25,203.00 872.93,203.00 C872.62,203.00 871.05,200.20 869.43,196.77 C863.60,184.38 850.50,173.84 835.45,169.42 C827.51,167.09 810.77,167.05 802.11,169.34 C788.03,173.06 775.36,182.84 769.50,194.52 L 766.50 200.50 L 766.22 185.25 L 765.95 170.00 L 749.97 170.00 L 734.00 170.00 L 734.00 248.00 L 734.00 326.00 L 750.00 326.00 L 766.00 326.00 L 766.03 281.75 ZM 1231.76 247.75 L 1232.01 170.00 L 1215.51 170.00 L 1199.00 170.00 L 1199.00 247.33 C1199.00,289.87 1199.31,324.98 1199.69,325.36 C1200.07,325.74 1207.38,325.93 1215.94,325.77 L 1231.50 325.50 L 1231.76 247.75 ZM 1469.76 247.75 L 1470.01 170.00 L 1453.51 170.00 L 1437.00 170.00 L 1437.00 247.33 C1437.00,289.87 1437.31,324.98 1437.69,325.36 C1438.07,325.74 1445.38,325.93 1453.94,325.77 L 1469.50 325.50 L 1469.76 247.75 ZM 1586.78 311.87 L 1587.05 298.24 L 1574.78 297.83 C1564.05,297.48 1561.94,297.11 1558.05,294.96 C1555.60,293.61 1552.68,290.92 1551.55,289.00 C1549.58,285.64 1549.49,283.77 1549.20,241.77 L 1548.90 198.04 L 1567.70 197.77 L 1586.50 197.50 L 1586.78 183.75 L 1587.06 170.00 L 1568.03 170.00 L 1549.00 170.00 L 1549.00 150.50 L 1549.00 131.00 L 1538.20 131.00 L 1527.39 131.00 L 1521.89 150.25 L 1516.39 169.50 L 1505.17 169.78 L 1493.94 170.07 L 1494.22 183.78 L 1494.50 197.50 L 1505.18 197.78 L 1515.86 198.07 L 1516.26 243.28 C1516.62,282.60 1516.90,289.28 1518.42,294.46 C1522.94,309.83 1531.07,318.22 1546.00,322.87 C1555.06,325.70 1555.73,325.77 1572.00,325.63 L 1586.50 325.50 L 1586.78 311.87 ZM 1821.75 221.25 L 1822.01 117.00 L 1805.50 117.00 L 1789.00 117.00 L 1789.00 220.83 C1789.00,277.94 1789.31,324.98 1789.69,325.36 C1790.07,325.74 1797.38,325.93 1805.94,325.77 L 1821.50 325.50 L 1821.75 221.25 ZM 1223.28 152.62 C1227.17,150.96 1231.49,146.52 1232.94,142.68 C1234.76,137.86 1234.20,129.91 1231.73,125.59 C1228.23,119.47 1224.99,117.62 1217.00,117.17 C1210.92,116.83 1209.50,117.10 1205.62,119.37 C1196.16,124.92 1193.91,139.80 1201.32,147.88 C1206.31,153.33 1216.49,155.53 1223.28,152.62 ZM 1461.91 152.04 C1469.60,148.12 1472.79,141.74 1471.74,132.41 C1470.61,122.34 1462.91,116.45 1451.78,117.16 C1444.23,117.64 1439.95,120.21 1436.98,126.04 C1434.62,130.66 1434.33,139.81 1436.41,143.80 C1441.00,152.63 1453.10,156.54 1461.91,152.04 ZM 1320.00 297.64 C1299.51,292.06 1287.63,276.16 1286.30,252.51 C1285.03,230.07 1291.96,213.15 1306.18,203.96 C1314.65,198.49 1322.44,196.69 1335.63,197.16 C1345.35,197.50 1347.22,197.88 1353.35,200.76 C1365.54,206.50 1374.71,218.13 1378.49,232.63 C1380.42,240.05 1380.43,255.92 1378.51,263.31 C1375.40,275.26 1366.84,287.08 1357.23,292.71 C1347.20,298.59 1331.25,300.70 1320.00,297.64 ZM 1081.91 297.56 C1074.76,295.58 1065.38,290.14 1061.05,285.44 C1043.56,266.46 1043.77,227.39 1061.46,209.70 C1071.21,199.94 1080.75,196.62 1097.42,197.15 C1107.99,197.48 1109.02,197.71 1116.21,201.26 C1128.67,207.42 1137.53,219.08 1141.07,234.00 C1142.73,240.99 1142.71,254.88 1141.02,262.00 C1137.01,279.01 1123.54,293.38 1107.65,297.61 C1101.33,299.29 1088.10,299.26 1081.91,297.56 ZM 1672.70 297.90 C1666.06,296.34 1658.18,292.02 1652.48,286.81 C1642.14,277.35 1637.23,262.37 1638.25,243.37 C1639.21,225.66 1645.16,213.29 1656.72,205.01 C1664.66,199.33 1672.89,197.00 1685.06,197.00 C1704.24,197.00 1717.83,204.99 1726.02,221.08 C1733.84,236.45 1734.07,259.06 1726.56,273.88 C1723.38,280.16 1714.92,289.38 1709.33,292.65 C1699.54,298.39 1684.14,300.60 1672.70,297.90 Z" fill="rgb(254,254,254)"/>
</g>
</svg>