<svg xmlns="http://www.w3.org/2000/svg" width="1015" height="1034"><path fill="#001952" d="M0 0h1015v1034H0Zm605.72 559.91c5.29 1.24 6.79 1.24 11.78-.01 5.63-1.42 11.76-6.69 14.11-12.13 1.61-3.72 1.89-7.73 2.19-31.08l.35-26.82-3.82.32c-2.88.23-3.91.8-4.19 2.31-.21 1.1-.75 2.98-1.21 4.17-.79 2.09-1 2-5.13-2.11-3.37-3.36-5.3-4.43-8.93-4.96-15.13-2.24-25.99 9.47-24.57 26.47.71 8.38 3.49 14.04 8.81 17.89 7.87 5.71 17.89 5.27 24.21-1.04 2.15-2.16 4.09-3.92 4.3-3.92 1.24 0 .07 12.09-1.52 15.58-1.9 4.19-6.7 7.42-11.03 7.42-3.69 0-8.79-2.7-11.16-5.91-2.01-2.71-2.88-3.09-7.11-3.09h-4.83l1.57 3.75c2.84 6.79 8.42 11.33 16.18 13.16Zm-260.43-32.92 1.35.8c13.45 7.98 18.13 10.76 20.11 9.45 1.12-.74 1.36-2.8 1.84-5.98 1.61-10.73-1.71-20.81-8.82-26.81-4.9-4.13-8.96-5.45-16.77-5.45-8.35 0-14.83 2.76-19.81 8.44-1.72 1.96-3.42 3.56-3.77 3.56-.35 0-9.4-5.21-20.11-11.58-10.71-6.36-20.09-11.34-20.83-11.05-1.76.68-3.47 6.91-3.47 12.7-.02 14.1 10.55 25.35 25.06 26.67 4.65.42 6.67.07 11.06-1.96 4.97-2.28 11.87-8.08 11.87-9.97 0-1.78 2.87-.34 22.29 11.18Zm183.72 9.42c7.44 3.22 16.53 1.3 21.44-4.53 1.33-1.58 2.63-2.88 2.88-2.88s.23 1.63-.04 3.63c-.58 4.29.59 5.33 5.96 5.35l3.75.02v-64h-10.17l.33 12c.19 6.6.27 12 .19 12-.08 0-1.68-1.53-3.56-3.41-4.61-4.61-10.57-6.18-17.55-4.62-6.18 1.38-10.48 4.69-13.53 10.41-3.14 5.89-3.17 20.3-.05 26.12 2.64 4.92 5.78 7.92 10.35 9.91Zm174 0c7.42 3.22 17.17.98 21.9-5.02l2.09-2.66v4.03c0 4.46.98 5.24 6.58 5.24H737v-48h-3.29c-3.06 0-3.38.32-4.51 4.54l-1.21 4.53-3.75-3.93c-7.43-7.81-20.63-7.8-27.93.01-6.56 7.04-8.36 20.95-3.93 30.35 2.7 5.72 5.64 8.74 10.63 10.91ZM433 490v47h10v-15.25c.01-13.48.24-15.63 2-18.52 3.67-6.01 11.86-7.11 17.23-2.31l3.27 2.91.32 16.59.31 16.58H476v-15.25c.01-13.48.24-15.63 2-18.52 3.13-5.13 11.06-6.97 15.78-3.67 4.48 3.14 5.22 6.32 5.22 22.39V537h10.2l-.35-17.25c-.33-16.19-.5-17.53-2.85-21.75-2.88-5.18-9.27-9.01-14.96-8.98-4.79.03-11.06 3.03-14.24 6.8l-2.61 3.11-2.73-3.57c-6.34-8.32-18.94-8.52-25.76-.42l-2.7 3.21V490Zm-32.88 47c9 2.12 16.71.41 22.02-4.91 4.63-4.62 5.84-9.8 3.48-14.76-2.03-4.25-7.2-6.7-17.41-8.25-8.33-1.27-11.22-2.7-11.19-5.57.02-2.85 1.11-4.23 4.32-5.45 6.38-2.42 13.57-.07 15.17 4.97.48 1.52 1.52 1.97 4.56 1.97 3.46 0 3.93-.28 3.93-2.35 0-3.31-3.87-8.67-8-11.1-4.88-2.86-14.9-2.72-20.74.29-5.53 2.85-7.76 6.38-7.76 12.26 0 7.83 4.51 11.24 17.21 12.98 8.91 1.22 12.29 2.95 12.29 6.29 0 8.29-17.9 8.6-21.8.38-1.1-2.31-1.93-2.75-5.25-2.75-3.48 0-3.95.28-3.95 2.35 0 5.03 6.87 12.17 13.12 13.65Zm275 .02c1.86.45 4.73.74 6.38.65 2.78-.16 3.02-.48 3.31-4.42.3-4.21.28-4.25-3.03-4.25-1.83 0-4.34-.7-5.56-1.56-2.11-1.47-2.22-2.24-2.22-14.94v-13.4l5.25-.3 5.25-.3.61-8.5H674v-12h-3.45c-3.36 0-3.49.15-5.13 6-1.64 5.84-1.78 6-5.11 6-3.41 0-3.42.02-3.12 4.25.29 3.99.51 4.27 3.56 4.56l3.25.32.01 14.18c.01 9.27.45 15.02 1.25 16.59 1.64 3.18 5.69 6.11 9.86 7.12Zm-128.42-9.98c-6.47 3.95-15.36 1.5-18.76-5.15-3.64-7.14-1.83-17.77 3.64-21.35 3.88-2.54 10.39-2.93 14.39-.84 9.65 5.02 10.09 21.63.73 27.34Zm173.39.41c-9.6 4.97-20.09-2.19-20.09-13.72 0-9.2 3.94-14.38 11.75-15.42 9.11-1.23 15.24 4.88 15.24 15.19 0 6.98-2.26 11.55-6.9 13.95Zm-103.28-.47c-11.84 7.21-25.21-6.72-19.44-20.26 3.18-7.46 11.62-10.64 18.63-7.02 4 2.06 8.01 8.98 7.98 13.76-.04 4.76-3.49 11.27-7.17 13.52Zm127.9 10.4c.4.39 2.53.58 4.75.42l4.04-.3.53-63.5H744v31.33c0 17.24.32 31.66.71 32.05Zm-103.46-.04c.69.28 2.94.54 5 .58l3.75.08v-48h-10v23.42c0 17.79.3 23.53 1.25 23.92Zm-70 .02c.69.29 2.83.44 4.75.33l3.5-.19.27-23.75.27-23.75H570v23.42c0 17.78.3 23.54 1.25 23.94Zm.5-53.44c5.76 3.35 11.36-2.1 8.21-7.99-1.18-2.21-6.81-2.68-8.76-.73-1.85 1.85-1.49 7.53.55 8.72Zm70 0c5.76 3.35 11.36-2.1 8.21-7.99-1.18-2.21-6.81-2.68-8.76-.73-1.85 1.85-1.49 7.53.55 8.72Z"/><path fill="#00C9FC" d="M433 490h10v8.15l2.7-3.21c6.82-8.1 19.42-7.9 25.76.42l2.73 3.57 2.61-3.11c3.18-3.77 9.45-6.77 14.24-6.8 5.69-.03 12.08 3.8 14.96 8.98 2.35 4.22 2.52 5.56 2.85 21.75l.35 17.25H499v-15.05c0-16.07-.74-19.25-5.22-22.39-4.72-3.3-12.65-1.46-15.78 3.67-1.76 2.89-1.99 5.04-2 18.52V537h-9.87l-.31-16.58-.32-16.59-3.27-2.91c-5.37-4.8-13.56-3.7-17.23 2.31-1.76 2.89-1.99 5.04-2 18.52V537h-10Zm-90.39 35.4C325.6 515.34 323 514.11 323 515.81c0 1.89-6.9 7.69-11.87 9.97-4.39 2.03-6.41 2.38-11.06 1.96-14.51-1.32-25.08-12.57-25.06-26.67 0-5.79 1.71-12.02 3.47-12.7.74-.29 10.12 4.69 20.83 11.05 10.71 6.37 19.76 11.58 20.11 11.58.35 0 2.05-1.6 3.77-3.56 4.58-5.23 10.43-7.98 17.83-8.39-3.74.3-7.38 1.11-9.89 2.39-5.23 2.64-11.79 9.31-10.46 10.62.45.43 10.23 6.39 21.94 13.34Zm57.51 11.6c-6.25-1.48-13.12-8.62-13.12-13.65 0-2.07.47-2.35 3.95-2.35 3.32 0 4.15.44 5.25 2.75 3.9 8.22 21.8 7.91 21.8-.38 0-3.34-3.38-5.07-12.29-6.29-12.7-1.74-17.21-5.15-17.21-12.98 0-5.88 2.23-9.41 7.76-12.26 5.84-3.01 15.86-3.15 20.74-.29 4.13 2.43 8 7.79 8 11.1 0 2.07-.47 2.35-3.93 2.35-3.04 0-4.08-.45-4.56-1.97-1.6-5.04-8.79-7.39-15.17-4.97-3.21 1.22-4.3 2.6-4.32 5.45-.03 2.87 2.86 4.3 11.19 5.57 10.21 1.55 15.38 4 17.41 8.25 2.36 4.96 1.15 10.14-3.48 14.76-5.31 5.32-13.02 7.03-22.02 4.91Zm-37.91-30.17c5.41 6.09 7.79 15 6.38 24.43 1.41-9.45-1.06-18.3-6.38-24.43Zm4.54 30.41c-1.65 1.1-5.2-.67-14.2-5.95 9.05 5.3 12.6 7.02 14.23 5.91.21-.14.39-.33.54-.56-.16.25-.35.46-.57.6Z"/><path fill="#FDFDFE" d="M605.72 559.91c-7.76-1.83-13.34-6.37-16.18-13.16l-1.57-3.75h4.83c4.23 0 5.1.38 7.11 3.09 2.37 3.21 7.47 5.91 11.16 5.91 4.33 0 9.13-3.23 11.03-7.42 1.59-3.49 2.76-15.58 1.52-15.58-.21 0-2.15 1.76-4.3 3.92-6.32 6.31-16.34 6.75-24.21 1.04-5.32-3.85-8.1-9.51-8.81-17.89-1.42-17 9.44-28.71 24.57-26.47 3.63.53 5.56 1.6 8.93 4.96 4.13 4.11 4.34 4.2 5.13 2.11.46-1.19 1-3.07 1.21-4.17.28-1.51 1.31-2.08 4.19-2.31l3.82-.32-.35 26.82c-.3 23.35-.58 27.36-2.19 31.08-2.35 5.44-8.48 10.71-14.11 12.13-4.99 1.25-6.49 1.25-11.78.01Zm11.09-32.93c3.68-2.25 7.13-8.76 7.17-13.52.03-4.78-3.98-11.7-7.98-13.76-7.01-3.62-15.45-.44-18.63 7.02-5.77 13.54 7.6 27.47 19.44 20.26Zm-273.31-1.05c-12.1-7.18-22.37-13.42-22.83-13.87-1.33-1.31 5.23-7.98 10.46-10.62 5.58-2.83 16.7-3.38 22.15-1.09 11.19 4.69 17.37 17.17 15.31 30.91-1.35 9.02-.67 9.16-25.09-5.33Zm185.51 10.48c-4.57-1.99-7.71-4.99-10.35-9.91-3.12-5.82-3.09-20.23.05-26.12 3.05-5.72 7.35-9.03 13.53-10.41 6.98-1.56 12.94.01 17.55 4.62 1.88 1.88 3.48 3.41 3.56 3.41.08 0 0-5.4-.19-12l-.33-12H563v64l-3.75-.02c-5.37-.02-6.54-1.06-5.96-5.35.27-2 .29-3.63.04-3.63-.25 0-1.55 1.3-2.88 2.88-4.91 5.83-14 7.75-21.44 4.53Zm17.69-9.37c9.36-5.71 8.92-22.32-.73-27.34-4-2.09-10.51-1.7-14.39.84-5.47 3.58-7.28 14.21-3.64 21.35 3.4 6.65 12.29 9.1 18.76 5.15Zm24.55 10.32c-.95-.4-1.25-6.16-1.25-23.94V490h10.04l-.27 23.75-.27 23.75-3.5.19c-1.92.11-4.06-.04-4.75-.33Zm70-.02c-.95-.39-1.25-6.13-1.25-23.92V490h10v48l-3.75-.08c-2.06-.04-4.31-.3-5-.58Zm33.87-.32c-4.17-1.01-8.22-3.94-9.86-7.12-.8-1.57-1.24-7.32-1.25-16.59l-.01-14.18-3.25-.32c-3.05-.29-3.27-.57-3.56-4.56-.3-4.23-.29-4.25 3.12-4.25 3.33 0 3.47-.16 5.11-6 1.64-5.85 1.77-6 5.13-6H674v12h11.11l-.3 4.25-.31 4.25-5.25.3-5.25.3v13.4c0 12.7.11 13.47 2.22 14.94 1.22.86 3.73 1.56 5.56 1.56 3.31 0 3.33.04 3.03 4.25-.29 3.94-.53 4.26-3.31 4.42-1.65.09-4.52-.2-6.38-.65Zm27.89-.61c-4.99-2.17-7.93-5.19-10.63-10.91-4.43-9.4-2.63-23.31 3.93-30.35 7.3-7.81 20.5-7.82 27.93-.01l3.75 3.93 1.21-4.53c1.13-4.22 1.45-4.54 4.51-4.54H737v48h-3.42c-5.6 0-6.58-.78-6.58-5.24v-4.03l-2.09 2.66c-4.73 6-14.48 8.24-21.9 5.02Zm17.08-8.96c4.64-2.4 6.9-6.97 6.9-13.95 0-10.31-6.13-16.42-15.24-15.19-7.81 1.04-11.75 6.22-11.75 15.42 0 11.53 10.49 18.69 20.09 13.72Zm24.62 9.93c-.39-.39-.71-14.81-.71-32.05V474h10.03l-.27 31.75-.26 31.75-4.04.3c-2.22.16-4.35-.03-4.75-.42Zm-172.96-53.46c-2.04-1.19-2.4-6.87-.55-8.72 1.95-1.95 7.58-1.48 8.76.73 3.15 5.89-2.45 11.34-8.21 7.99Zm70 0c-2.04-1.19-2.4-6.87-.55-8.72 1.95-1.95 7.58-1.48 8.76.73 3.15 5.89-2.45 11.34-8.21 7.99Z"/></svg>