<svg xmlns="http://www.w3.org/2000/svg" width="2019" height="519"><path fill="#011A52" d="M1356.16 400.59c-14.11 2.71-36.83 1.3-49.66-3.09-17.17-5.86-32.39-18.83-39.49-33.63-4.16-8.65-7.26-18.28-6.24-19.31.31-.31 7.44-.56 15.84-.56h15.28l2.67 5.96c3.12 6.96 11.51 15.49 18.56 18.87 5.56 2.68 16.6 5.13 23.18 5.15 16.18.06 32.06-8.96 38.7-21.98 4.2-8.23 5-14.26 4.99-37.46l-.01-22.04-2.58 4.5c-12.36 21.63-32.12 32.11-57.9 30.71-33.26-1.81-57.41-23.26-64.61-57.4-2.82-13.35-2.29-38.87 1.04-50.22 7.6-25.97 24.27-43.21 48.07-49.71 9.17-2.51 30.22-2.52 38.5-.02 14.64 4.43 27.82 15.07 34.56 27.89l3.54 6.74 5.04-17.24 5.04-17.25 11.16-.28 11.16-.29v82.29c0 88.6-.11 90.81-5.29 105.02-8.3 22.78-27.19 38.67-51.55 43.35Zm-256.99-74c-24.21 4.64-47.4-2.56-63.73-19.77-8.04-8.48-13.15-17.57-17.07-30.36-2.57-8.39-2.75-10.17-2.8-27.96-.06-21.58.96-27.24 7.39-41 9.08-19.41 23.32-31.67 43.13-37.13 9.85-2.72 30.22-2.54 39.41.35 14.12 4.43 26.51 14.47 33.3 26.98l3.15 5.8.02-43.25.03-43.25h33.01l-.51 208.5h-32l-.5-17c-.28-9.5-.82-15.88-1.22-14.45-.39 1.4-3.01 5.81-5.81 9.79-8.37 11.93-20.93 19.91-35.8 22.75Zm590.33-.09c-7.62 1.6-20.42 1.79-27.42.41-26.85-5.26-46.75-24.09-54.03-51.12-10.36-38.46 1.62-79.31 28.38-96.74 19.96-13.01 49.3-14.55 70.07-3.69 8.02 4.19 18.13 14.45 22.55 22.88l3.55 6.75 9.9-34.49 11.26-.28 11.25-.29-.25 77.79-.26 77.78h-32l-1-33-2.5 4.98c-1.38 2.73-5.61 8.26-9.4 12.27-8.02 8.49-18.52 14.33-30.1 16.75Zm-1181.65-.25c-1.59 3.16-2.98 5.74-3.11 5.73-.13-.01-27.47-15.78-60.74-35.06s-68.03-39.33-77.24-44.57c-10.84-6.17-15.2-8.26-15.49-10.82-.18-1.59 1.2-3.35 3.59-6.38.51-.66 1.07-1.37 1.67-2.15 12.09-15.75 29.65-27.18 50.05-32.58 10.26-2.72 33.03-2.48 43.92.46 16.46 4.43 29.98 12.58 42.14 25.38 25.51 26.86 31.64 67.12 15.21 99.99Zm1078.93-14.36-.28 13.61-14.5.18c-16.7.21-23.88-1.02-33.5-5.75-7.67-3.78-13.69-9.93-17.18-17.54-4.63-10.11-5.25-17.45-5.29-62.61l-.03-41.71-21.5-.57-.28-13.72-.28-13.71 11.17-.29 11.17-.28 11.12-38.5h21.6v39h38.06l-.56 27.5-18.79.27-18.79.27.29 43.23c.27 40.91.4 43.44 2.29 47.23 3.36 6.71 8.38 8.73 23.18 9.3l12.37.47Zm-266.28-14.3c7.01 1.74 18.02 1.69 24.97-.12 15.75-4.11 28.08-16.68 32.7-33.33 2.26-8.16 2.43-23.42.34-31.44-3.77-14.47-13.19-26.38-25.26-31.92-5.93-2.73-8.1-3.16-17.92-3.57-9.35-.38-12.28-.12-18.03 1.63-7.64 2.32-16.54 8.17-20.66 13.56-4.37 5.73-8.4 15.28-9.7 22.95-1.62 9.56-.65 25.4 2.01 33.07 5.23 15.04 16.46 25.42 31.55 29.17Zm351.41-.03c6.43 1.77 18.58 1.72 25.57-.1 16.37-4.26 29.78-18.81 33.41-36.26 1.59-7.61 1.37-21.42-.46-28.48-6-23.15-22.16-35.72-45.93-35.72-27.94 0-44.92 17.29-46.27 47.14-1.26 27.89 10.87 47.12 33.68 53.42Zm-589.41.03c11.99 2.98 26.65 1.03 36.73-4.88 9.34-5.47 17.6-16.66 21.16-28.64 2.04-6.89 2.13-24.53.16-31.94-3.79-14.22-12.28-24.96-24.42-30.9l-7.63-3.73H1095c-13.26 0-13.63.06-20.73 3.39-16.81 7.88-26.24 24.81-26.24 47.11 0 25.44 13.1 44.29 34.47 49.59ZM1822.01 117l-.51 208.5-15.56.27c-8.56.16-15.87-.03-16.25-.41-.38-.38-.69-47.42-.69-104.53V117Zm-590 53-.51 155.5-15.56.27c-8.56.16-15.87-.03-16.25-.41-.38-.38-.69-35.49-.69-78.03V170Zm238 0-.51 155.5-15.56.27c-8.56.16-15.87-.03-16.25-.41-.38-.38-.69-35.49-.69-78.03V170Zm-247.33-17.06c-6.64 2.51-16.58.16-21.36-5.06-7.34-8-5.07-23.31 4.26-28.61 2.95-1.69 5.55-2.24 10.52-2.25 7.85-.02 12.09 2.29 15.62 8.51 2.65 4.68 3.09 14.01.87 18.27-1.89 3.63-6.46 7.83-9.91 9.14Zm239.23-.9c-6.64 3.39-15.79 2.14-21.25-2.91-4.21-3.9-5.66-7.39-5.66-13.62 0-6.74 2.59-12.37 7.2-15.66 4.43-3.15 14.95-3.82 20.27-1.3 9.49 4.51 12.74 20.29 5.86 28.46-1.42 1.69-4.31 3.96-6.42 5.03Z"/><path fill="#01C6F9" d="m766.26 278.25-.41 47.75h-15.26c-8.39 0-15.56-.3-15.92-.67-.37-.36-.67-35.46-.67-78V170h32v13.94c0 7.67.35 14.16.78 14.43.43.26 2.04-1.92 3.58-4.86 1.54-2.94 5.66-8.1 9.16-11.46 10.31-9.89 21.89-14.05 39.14-14.05 12.46 0 18.82 1.24 27.34 5.31 8.73 4.18 19.62 14.98 23.58 23.39 1.61 3.41 3.14 6.22 3.42 6.25.28.02 1.85-2.54 3.5-5.7 6.4-12.28 21.58-23.95 36.05-27.72 6.92-1.8 24.89-2.04 32.65-.43 15.61 3.23 29.38 14.09 36.66 28.9 7.43 15.13 7.58 16.58 7.61 75.5l.03 52h-32l-.53-50.5c-.34-32.69-.92-51.58-1.63-53.56-3.78-10.58-9.49-17.4-18.1-21.64-6.4-3.15-7.21-3.3-18.22-3.3-10.85 0-11.9.18-18.02 3.13-10.6 5.09-17.94 13.96-21.16 25.54-.81 2.95-1.38 19.69-1.77 52.33l-.57 48h-31l-.54-49c-.48-43.47-.75-49.62-2.34-54.5-2.56-7.86-5.91-13.21-11.18-17.85-6.74-5.93-12.68-7.67-25.94-7.58-9.61.07-11.72.4-16.68 2.67-10.63 4.84-17.79 13.54-21.63 26.26-1.23 4.07-1.59 13.92-1.93 52.75Zm-414.67-38.42c-.27.62-.38 1.17-.32 1.7.29 2.56 4.65 4.65 15.49 10.82.72.41 1.6.91 2.61 1.49l-5.22-2.93-3.27 4.8c-7.86 11.52-21.43 23.53-33.38 29.54-12.7 6.38-22.51 8.93-36.5 9.49-15.16.61-25.18-1.14-38.64-6.72-36.77-15.27-58.86-52.63-54.46-92.1 1.5-13.4 8.7-33.92 11.9-33.92.79 0 30.75 16.94 66.57 37.64 35.82 20.71 67.12 38.8 69.56 40.21 2.83 1.63 4.57 2.14 4.81 1.42.07-.21.38-.72.85-1.44Zm302.56 87.22c-9.69 1.02-10.8 1.02-20.63-.12-30.26-3.5-50.16-19.21-55.39-43.73-1.64-7.68-1.46-10.98.62-11.52.96-.25 7.2-.53 13.86-.63l12.11-.17.55 3.37c1.67 10.29 10.77 20.56 21.8 24.61 18.03 6.62 46.32 1.77 52.91-9.07 6.58-10.81 1.48-21.41-12.35-25.68-5.77-1.78-11.81-2.77-38.02-6.22-21.72-2.86-38.24-12.21-44.52-25.19-2.81-5.83-3.97-14.59-3.01-22.78 2.12-17.97 18.9-33.98 41.45-39.57 9.74-2.42 33.44-2.38 42.47.06 20.66 5.59 36.07 21.36 40 40.9l.09.47c.7 3.48 1.11 5.48.3 6.64-1.11 1.58-4.48 1.58-12.45 1.58h-1.22c-8.55 0-11.75 0-13.4-1.6-1.01-.98-1.44-2.56-2.17-5.11-1.85-6.47-6.93-12.36-13.63-15.78-5.72-2.93-6.28-3.01-19.95-3.01-15.18 0-19.59 1.03-26.32 6.14-4.41 3.34-6.25 7.28-6.25 13.35 0 6.39 1.95 9.44 7.98 12.5 6.71 3.4 14.6 5.22 32.63 7.52 33.27 4.24 50.97 12.63 57.47 27.22 3.08 6.9 3.33 21.4.53 29.77-6.89 20.56-25.95 32.95-55.46 36.05ZM373.79 216.07c9.54-7.14 20.56-12.41 32.79-15.65-12.11 3.21-23.23 8.54-32.79 15.65Zm43.43 65.35c8.68 5.02 17.78 10.29 26.78 15.5 16.84 9.76 32.16 18.62 43.2 24.99-11.74-6.78-28.37-16.39-46.7-27.01-8.05-4.66-15.9-9.21-23.28-13.48Zm87.54 50.55c-.01.01-.02.01-.02.01s.01 0 .02-.01Z"/><path fill="#FEFEFE" d="M0 259.5V0h2019v519H0V259.5Zm1356.16 141.09c24.36-4.68 43.25-20.57 51.55-43.35 5.18-14.21 5.29-16.42 5.29-105.02v-82.29l-11.16.29-11.16.28-5.04 17.25-5.04 17.24-3.54-6.74c-6.74-12.82-19.92-23.46-34.56-27.89-8.28-2.5-29.33-2.49-38.5.02-23.8 6.5-40.47 23.74-48.07 49.71-3.33 11.35-3.86 36.87-1.04 50.22 7.2 34.14 31.35 55.59 64.61 57.4 25.78 1.4 45.54-9.08 57.9-30.71l2.58-4.5.01 22.04c.01 23.2-.79 29.23-4.99 37.46-6.64 13.02-22.52 22.04-38.7 21.98-6.58-.02-17.62-2.47-23.18-5.15-7.05-3.38-15.44-11.91-18.56-18.87l-2.67-5.96h-15.28c-8.4 0-15.53.25-15.84.56-1.02 1.03 2.08 10.66 6.24 19.31 7.1 14.8 22.32 27.77 39.49 33.63 12.83 4.39 35.55 5.8 49.66 3.09Zm-848.31-74.34c16.43-32.87 10.3-73.13-15.21-99.99-12.16-12.8-25.68-20.95-42.14-25.38-10.89-2.94-33.66-3.18-43.92-.46-20.82 5.51-38.14 16.93-50.66 33.4-2.64 3.48-4.97 6.83-5.18 7.45-.24.72-1.98.21-4.81-1.42-2.44-1.41-33.74-19.5-69.56-40.21-35.82-20.7-65.78-37.64-66.57-37.64-3.2 0-10.4 20.52-11.9 33.92-4.4 39.47 17.69 76.83 54.46 92.1 13.46 5.58 23.48 7.33 38.64 6.72 13.99-.56 23.8-3.11 36.5-9.49 11.95-6.01 25.52-18.02 33.38-29.54l3.27-4.8 6.18 3.46c3.39 1.9 34.97 20.14 70.17 40.53s64.11 37.08 64.24 37.08c.13.01 1.52-2.57 3.11-5.73Zm146.3.8c29.51-3.1 48.57-15.49 55.46-36.05 2.8-8.37 2.55-22.87-.53-29.77-6.5-14.59-24.2-22.98-57.47-27.22-18.03-2.3-25.92-4.12-32.63-7.52-6.03-3.06-7.98-6.11-7.98-12.5 0-6.07 1.84-10.01 6.25-13.35 6.73-5.11 11.14-6.14 26.32-6.14 13.67 0 14.23.08 19.95 3.01 6.7 3.42 11.78 9.31 13.63 15.78 1.93 6.78 1.77 6.71 16 6.71 14.87 0 14.63.16 12.85-8.69-3.93-19.54-19.34-35.31-40-40.9-9.03-2.44-32.73-2.48-42.47-.06-22.55 5.59-39.33 21.6-41.45 39.57-.96 8.19.2 16.95 3.01 22.78 6.28 12.98 22.8 22.33 44.52 25.19 26.21 3.45 32.25 4.44 38.02 6.22 13.83 4.27 18.93 14.87 12.35 25.68-6.59 10.84-34.88 15.69-52.91 9.07-11.03-4.05-20.13-14.32-21.8-24.61l-.55-3.37-12.11.17c-6.66.1-12.9.38-13.86.63-2.08.54-2.26 3.84-.62 11.52 5.23 24.52 25.13 40.23 55.39 43.73 9.83 1.14 10.94 1.14 20.63.12Zm445.02-.46c14.87-2.84 27.43-10.82 35.8-22.75 2.8-3.98 5.42-8.39 5.81-9.79.4-1.43.94 4.95 1.22 14.45l.5 17h32l.25-104.25.26-104.25H1142l-.03 43.25-.02 43.25-3.15-5.8c-6.79-12.51-19.18-22.55-33.3-26.98-9.19-2.89-29.56-3.07-39.41-.35-19.81 5.46-34.05 17.72-43.13 37.13-6.43 13.76-7.45 19.42-7.39 41 .05 17.79.23 19.57 2.8 27.96 3.92 12.79 9.03 21.88 17.07 30.36 16.33 17.21 39.52 24.41 63.73 19.77Zm590.33-.09c11.58-2.42 22.08-8.26 30.1-16.75 3.79-4.01 8.02-9.54 9.4-12.27l2.5-4.98.5 16.5.5 16.5h32l.26-77.78.25-77.79-11.25.29-11.26.28-4.95 17.24-4.95 17.25-3.55-6.75c-4.42-8.43-14.53-18.69-22.55-22.88-20.77-10.86-50.11-9.32-70.07 3.69-26.76 17.43-38.74 58.28-28.38 96.74 7.28 27.03 27.18 45.86 54.03 51.12 7 1.38 19.8 1.19 27.42-.41Zm-923.24-48.25c.34-38.83.7-48.68 1.93-52.75 3.84-12.72 11-21.42 21.63-26.26 4.96-2.27 7.07-2.6 16.68-2.67 13.26-.09 19.2 1.65 25.94 7.58 5.27 4.64 8.62 9.99 11.18 17.85 1.59 4.88 1.86 11.03 2.34 54.5l.54 49h31l.57-48c.39-32.64.96-49.38 1.77-52.33 3.22-11.58 10.56-20.45 21.16-25.54 6.12-2.95 7.17-3.13 18.02-3.13 11.01 0 11.82.15 18.22 3.3 8.61 4.24 14.32 11.06 18.1 21.64.71 1.98 1.29 20.87 1.63 53.56l.53 50.5h32l-.03-52c-.03-58.92-.18-60.37-7.61-75.5-7.28-14.81-21.05-25.67-36.66-28.9-7.76-1.61-25.73-1.37-32.65.43-14.47 3.77-29.65 15.44-36.05 27.72-1.65 3.16-3.22 5.72-3.5 5.7-.28-.03-1.81-2.84-3.42-6.25-3.96-8.41-14.85-19.21-23.58-23.39-8.52-4.07-14.88-5.31-27.34-5.31-17.25 0-28.83 4.16-39.14 14.05-3.5 3.36-7.62 8.52-9.16 11.46-1.54 2.94-3.15 5.12-3.58 4.86-.43-.27-.78-6.76-.78-14.43V170h-32v77.33c0 42.54.3 77.64.67 78 .36.37 7.53.67 15.92.67h15.26l.41-47.75Zm465.5-30.5.25-77.75H1199v77.33c0 42.54.31 77.65.69 78.03.38.38 7.69.57 16.25.41l15.56-.27.26-77.75Zm238 0 .25-77.75H1437v77.33c0 42.54.31 77.65.69 78.03.38.38 7.69.57 16.25.41l15.56-.27.26-77.75Zm117.02 64.14.27-13.62-12.37-.47c-14.8-.57-19.82-2.59-23.18-9.3-1.89-3.79-2.02-6.32-2.29-47.23l-.29-43.23 18.79-.27 18.79-.27.28-13.75.28-13.75H1549v-39h-21.6l-5.56 19.25-5.56 19.25-11.17.28-11.17.29.28 13.71.28 13.72 10.75.28 10.75.29.03 41.71c.04 45.16.66 52.5 5.29 62.61 3.49 7.61 9.51 13.76 17.18 17.54 9.62 4.73 16.8 5.96 33.5 5.75l14.5-.18.28-13.61Zm234.97-90.64.26-104.25H1789v103.83c0 57.11.31 104.15.69 104.53.38.38 7.69.57 16.25.41l15.56-.27.25-104.25Zm-599.07-68.31c3.45-1.31 8.02-5.51 9.91-9.14 2.22-4.26 1.78-13.59-.87-18.27-3.53-6.22-7.77-8.53-15.62-8.51-4.97.01-7.57.56-10.52 2.25-9.33 5.3-11.6 20.61-4.26 28.61 4.78 5.22 14.72 7.57 21.36 5.06Zm239.23-.9c2.11-1.07 5-3.34 6.42-5.03 6.88-8.17 3.63-23.95-5.86-28.46-5.32-2.52-15.84-1.85-20.27 1.3-4.61 3.29-7.2 8.92-7.2 15.66 0 6.23 1.45 9.72 5.66 13.62 5.46 5.05 14.61 6.3 21.25 2.91ZM1320.5 297.59c-15.09-3.75-26.32-14.13-31.55-29.17-2.66-7.67-3.63-23.51-2.01-33.07 1.3-7.67 5.33-17.22 9.7-22.95 4.12-5.39 13.02-11.24 20.66-13.56 5.75-1.75 8.68-2.01 18.03-1.63 9.82.41 11.99.84 17.92 3.57 12.07 5.54 21.49 17.45 25.26 31.92 2.09 8.02 1.92 23.28-.34 31.44-4.62 16.65-16.95 29.22-32.7 33.33-6.95 1.81-17.96 1.86-24.97.12Zm-238 0c-21.37-5.3-34.47-24.15-34.47-49.59 0-22.3 9.43-39.23 26.24-47.11 7.1-3.33 7.47-3.39 20.73-3.39h13.5l7.63 3.73c12.14 5.94 20.63 16.68 24.42 30.9 1.97 7.41 1.88 25.05-.16 31.94-3.56 11.98-11.82 23.17-21.16 28.64-10.08 5.91-24.74 7.86-36.73 4.88Zm589.41-.03c-22.81-6.3-34.94-25.53-33.68-53.42 1.35-29.85 18.33-47.14 46.27-47.14 23.77 0 39.93 12.57 45.93 35.72 1.83 7.06 2.05 20.87.46 28.48-3.63 17.45-17.04 32-33.41 36.26-6.99 1.82-19.14 1.87-25.57.1Z"/></svg>